<?xml version="1.0" encoding="utf-8"?>
<!-- Generator: Adobe Illustrator 24.0.0, SVG Export Plug-In . SVG Version: 6.00 Build 0)  -->
<svg version="1.1" id="Layer_1" xmlns="http://www.w3.org/2000/svg" xmlns:xlink="http://www.w3.org/1999/xlink" x="0px" y="0px"
	 width="180px" height="450px" viewBox="0 0 180 450" style="enable-background:new 0 0 180 450;" xml:space="preserve">
<style type="text/css">
	.st0{fill:#FEF200;}
	.st1{clip-path:url(#SVGID_2_);}
	.st2{fill:#01A453;stroke:#FFFFFF;stroke-width:2;stroke-miterlimit:10;}
	.st3{fill:#FEF200;stroke:#FFFFFF;stroke-width:2;stroke-miterlimit:10;}
	.st4{fill:#F2202B;}
	.st5{font-family:'VNI-Swiss-Condense';}
	.st6{font-size:22px;}
	.st7{fill:#FFFFFF;}
	.st8{font-size:25.3994px;}
	.st9{fill:#01A453;}
	.st10{font-size:42.56px;}
</style>
<title>banner-left</title>
<rect class="st0" width="180" height="450"/>
<g>
	<g>
		<defs>
			<rect id="SVGID_1_" width="180" height="450"/>
		</defs>
		<clipPath id="SVGID_2_">
			<use xlink:href="#SVGID_1_"  style="overflow:visible;"/>
		</clipPath>
		<g class="st1">
			<g id="Layer_1-2">
				<circle class="st2" cx="97" cy="126" r="300"/>
				<circle class="st3" cx="96" cy="-133" r="300"/>
				<g>
					<text transform="matrix(1 0 0 1 5.886 446.95)" class="st4 st5 st6">HOTLINE:</text>
					<text transform="matrix(1 0 0 1 74.586 446.95)" class="st4 st5 st6">070</text>
					<text transform="matrix(1 0 0 1 106.286 446.95)" class="st4 st5 st6">822</text>
					<text transform="matrix(1 0 0 1 136.686 446.95)" class="st4 st5 st6">0000</text>
				</g>
				<g>
					<text transform="matrix(1 0 0 1 4.99 404.8486)" class="st7 st5 st8">LAM GOÃ - LAM SOÙNG</text>
					<text transform="matrix(1 0 0 1 18.1716 363.1104)" class="st7 st5 st8">GIAÁY DAÙN TÖÔØNG</text>
					<text transform="matrix(1 0 0 1 37.3225 320.4004)" class="st7 st5 st8">VAÂN ÑAÙ PVC</text>
					<text transform="matrix(1 0 0 1 25.1313 278.96)" class="st7 st5 st8">TAÁM OÁP TÖÔØNG</text>
					<text transform="matrix(1 0 0 1 46.4023 236.8994)" class="st7 st5 st8">SAØN NHÖÏA</text>
					<text transform="matrix(1 0 0 1 57.9084 197.2817)" class="st7 st5 st8">SAØN GOÃ</text>
				</g>
				
					<image style="overflow:visible;enable-background:new    ;" width="303" height="303" xlink:href="../../../../../../../../../Users/haill/Downloads/logo.png"  transform="matrix(0.212 0 0 0.212 57.5659 99.5655)">
				</image>
				<g id="NOÄI_THAÁT_LIEÂN_KEÁT">
					<text transform="matrix(1 0 0 1 23.7888 47.35)" class="st9 st5 st10">NOÄI</text>
					<text transform="matrix(1 0 0 1 81.0888 47.35)" class="st9 st5 st10">THAÁT</text>
					<text transform="matrix(1 0 0 1 23.7888 97.35)" class="st9 st5 st10">LIEÂN</text>
					<text transform="matrix(1 0 0 1 95.9888 97.35)" class="st9 st5 st10">KEÁT</text>
				</g>
			</g>
		</g>
	</g>
</g>
</svg>
