<?xml version="1.0" encoding="utf-8"?>
<!-- Generator: Adobe Illustrator 24.0.0, SVG Export Plug-In . SVG Version: 6.00 Build 0)  -->
<svg version="1.1" id="Layer_1" xmlns="http://www.w3.org/2000/svg" xmlns:xlink="http://www.w3.org/1999/xlink" x="0px" y="0px"
	 width="180px" height="450px" viewBox="0 0 180 450" style="enable-background:new 0 0 180 450;" xml:space="preserve">
<style type="text/css">
	.st0{fill:#01A453;}
	.st1{fill:#01A453;stroke:#FFFFFF;stroke-miterlimit:10;}
	.st2{fill:#FFFFFF;}
	.st3{font-family:'VNI-Souvir-Bold';}
	.st4{font-size:8px;}
	.st5{writing-mode:tb;}
	.st6{fill:#FEF200;stroke:#FEF200;stroke-miterlimit:10;}
	.st7{font-family:'TimesNewRomanPSMT';}
	.st8{font-size:48px;glyph-orientation-vertical:0;}
	.st9{letter-spacing:4;}
	.st10{font-size:48px;glyph-orientation-vertical:1;}
</style>
<g>
	<rect x="0" y="32.9" class="st0" width="110.8" height="417.1"/>
	<g>
		<polygon class="st0" points="110.7,32.8 110.7,450 180,417.2 180,0 		"/>
	</g>
</g>
<g>
	<rect x="2.1" y="365.4" class="st1" width="108.5" height="82.8"/>
	<rect x="2.1" y="282.7" class="st1" width="108.5" height="82.8"/>
	<rect x="2.1" y="200" class="st1" width="108.5" height="82.8"/>
	<rect x="2.1" y="117.3" class="st1" width="108.5" height="83.1"/>
	<rect x="2.2" y="34.6" class="st1" width="108.3" height="82.7"/>
</g>
<image style="overflow:visible;" width="70" height="60" xlink:href="../../../../../../../../../Users/haill/Desktop/banner.jpg"  transform="matrix(1 0 0 1 21.3736 371.5544)">
</image>
<image style="overflow:visible;" width="70" height="60" xlink:href="../../../../../../../../../Users/haill/Desktop/banner.jpg"  transform="matrix(1 0 0 1 21.3736 287.5544)">
</image>
<image style="overflow:visible;" width="70" height="60" xlink:href="../../../../../../../../../Users/haill/Desktop/banner.jpg"  transform="matrix(1 0 0 1 21.3736 205.5545)">
</image>
<image style="overflow:visible;" width="70" height="60" xlink:href="../../../../../../../../../Users/haill/Desktop/banner.jpg"  transform="matrix(1 0 0 1 21.3736 122.5545)">
</image>
<image style="overflow:visible;" width="70" height="60" xlink:href="../../../../../../../../../Users/haill/Desktop/banner.jpg"  transform="matrix(1 0 0 1 21.1881 39.9109)">
</image>
<text transform="matrix(1 0 0 1 35.3366 194.6088)" class="st2 st3 st4">SAØN NHÖÏA</text>
<text transform="matrix(1 0 0 1 39.9702 112.4899)" class="st2 st3 st4">SAØN GOÃ</text>
<text transform="matrix(1 0 0 1 22.5444 359.7725)" class="st2 st3 st4">TAÁM NHÖÏA PVC</text>
<text transform="matrix(1 0 0 1 18.2277 277.7917)" class="st2 st3 st4">GIAÁY DAÙN TÖÔØNG</text>
<text transform="matrix(1 0 0 1 13.3465 443.4551)" class="st2 st3 st4">LAM GOÃ - LAM SOÙNG</text>
<text transform="matrix(1 0 0 1 148.1977 24.2377)" class="st5"><tspan x="0" y="0" class="st6 st7 st8 st9">NỘ</tspan><tspan x="0" y="105.6" class="st6 st7 st8">I</tspan><tspan x="0" y="153.6" class="st6 st7 st10">   </tspan><tspan x="0" y="189.6" class="st6 st7 st8 st9">THẤ</tspan><tspan x="0" y="348" class="st6 st7 st8">T</tspan></text>
</svg>
