<?xml version="1.0" encoding="utf-8"?>
<!-- Generator: Adobe Illustrator 24.0.0, SVG Export Plug-In . SVG Version: 6.00 Build 0)  -->
<svg version="1.1" xmlns="http://www.w3.org/2000/svg" xmlns:xlink="http://www.w3.org/1999/xlink" x="0px" y="0px" width="180px"
	 height="450px" viewBox="0 0 180 450" style="enable-background:new 0 0 180 450;" xml:space="preserve">
<style type="text/css">
	.st0{fill:#FEF200;stroke:#FFFFFF;stroke-width:2;stroke-miterlimit:10;}
	.st1{fill:#01A453;stroke:#FFFFFF;stroke-width:2;stroke-miterlimit:10;}
	.st2{fill:#01A453;}
	.st3{font-family:'VNI-Swiss-Condense';}
	.st4{font-size:42.5616px;}
	.st5{letter-spacing:-2;}
	.st6{fill:#F2202B;}
	.st7{font-size:22px;}
	.st8{letter-spacing:-1;}
	.st9{font-size:33px;}
	.st10{fill:#FFFFFF;}
	.st11{font-size:18px;}
	.st12{fill:#FEF200;}
</style>
<g id="Layer_2">
	<rect x="-17.3" y="-13.1" class="st0" width="203.2" height="465.5"/>
</g>
<g id="Layer_1">
	<circle class="st1" cx="97" cy="126" r="300"/>
	<circle class="st0" cx="96" cy="-133" r="300"/>
	<text id="NOÄI_THAÁT_LIEÂN_KEÁT_1_" transform="matrix(1 0 0 1 26.3682 47.3506)"><tspan x="0" y="0" class="st2 st3 st4">NOÄI</tspan><tspan x="49.8" y="0" class="st2 st3 st4 st5"> </tspan><tspan x="57.3" y="0" class="st2 st3 st4">THAÁT</tspan><tspan x="0" y="50" class="st2 st3 st4">LIEÂN</tspan><tspan x="64.7" y="50" class="st2 st3 st4 st5"> </tspan><tspan x="72.2" y="50" class="st2 st3 st4">KEÁT</tspan></text>
	
		<image style="overflow:visible;" width="303" height="303" xlink:href="../../../../../../../../../Users/haill/Downloads/logo.png"  transform="matrix(0.2157 0 0 0.2157 58.3232 99.1315)">
	</image>
	<g>
		<text transform="matrix(1 0 0 1 6.8418 447.9505)"><tspan x="0" y="0" class="st6 st3 st7">HOTLINE:</tspan><tspan x="65.9" y="0" class="st6 st3 st7 st5"> </tspan><tspan x="68.7" y="0" class="st6 st3 st7">070</tspan><tspan x="96.5" y="0" class="st6 st3 st7 st8"> </tspan><tspan x="100.4" y="0" class="st6 st3 st7">822</tspan><tspan x="128" y="0" class="st6 st3 st7 st5"> </tspan><tspan x="130.8" y="0" class="st6 st3 st7">0000</tspan></text>
	</g>
	<text transform="matrix(1 0 0 1 47.9175 203.881)" class="st6 st3 st9">SAØN GOÃ</text>
	<text transform="matrix(1 0 0 1 16.0492 229.0204)" class="st10 st3 st11">TÖÏ NHIEÂN - COÂNG NGHIEÄP</text>
	<text transform="matrix(1 0 0 1 35.1384 268.5144)" class="st12 st3 st9">SAØN NHÖÏA</text>
	<text transform="matrix(1 0 0 1 14.911 293.6235)" class="st10 st3 st11">TRONG NHAØ - NGOAØI TRÔØI</text>
	<text transform="matrix(1 0 0 1 28.2969 328.8511)" class="st6 st3 st7">TAÁM OÁP TÖÔØNG</text>
	<text transform="matrix(1 0 0 1 39.2672 355.2274)" class="st6 st3 st7">VAÂN DA PVC</text>
	<text transform="matrix(1 0 0 1 21.0492 381.4554)" class="st6 st3 st7">GIAÁY DAÙN TÖÔØNG</text>
	<text transform="matrix(1 0 0 1 16.0492 410.3857)" class="st6 st3 st7">LAM GOÃ - LAM SOÁNG</text>
</g>
</svg>
