<?xml version="1.0" encoding="utf-8"?>
<!-- Generator: Adobe Illustrator 24.0.0, SVG Export Plug-In . SVG Version: 6.00 Build 0)  -->
<svg version="1.0" id="Layer_1" xmlns="http://www.w3.org/2000/svg" xmlns:xlink="http://www.w3.org/1999/xlink" x="0px" y="0px"
	 viewBox="0 0 150 150" style="enable-background:new 0 0 150 150;" xml:space="preserve">
<style type="text/css">
	.st0{fill:#FFFFFF;stroke:#D7202B;stroke-width:5;stroke-miterlimit:10;}
	.st1{fill:#01A453;}
	.st2{fill:none;}
	.st3{fill:#F2202B;}
</style>
<circle class="st0" cx="75.14" cy="75.14" r="71.5"/>
<g>
	<polygon class="st1" points="32.61,123.04 36.21,118.71 38.59,120.65 38.2,121.2 36.38,119.73 35.27,121.13 36.86,122.41 
		36.49,122.95 34.79,121.59 33.21,123.55 	"/>
	<path class="st1" d="M36.26,118.75l2.29,1.95l-0.39,0.46l-1.74-1.48l-1.2,1.41l1.61,1.37l-0.39,0.45l-1.61-1.37l-1.63,1.92
		L32.65,123L36.26,118.75z"/>
	<path class="st1" d="M42.33,129.91c-0.39,0-0.8-0.13-1.2-0.38c-1.13-0.71-1.29-1.83-0.45-3.16l1.74-2.78l0.7,0.37l-1.73,2.88
		c-0.59,0.94-0.54,1.69,0.14,2.11c0.23,0.14,0.45,0.21,0.67,0.21l0,0c0.48,0,0.93-0.33,1.33-0.98l1.75-2.8l0.7,0.37l-1.7,2.84
		C43.74,129.45,43.07,129.91,42.33,129.91z"/>
	<path class="st1" d="M43.09,124l-1.75,2.8c-0.66,1.06-0.47,1.8,0.16,2.19c0.7,0.44,1.44,0.26,2.09-0.79l1.75-2.8l0.62,0.39
		l-1.72,2.75c-0.91,1.45-2.04,1.57-3.07,0.93c-0.97-0.61-1.35-1.61-0.43-3.08l1.74-2.78L43.09,124z"/>
	<path class="st1" d="M50.94,134.47c-0.06-0.22,0-0.63,0.15-1.44c0.15-0.74,0-1.1-0.56-1.37l-0.62-0.27l-0.87,2.18l-0.74-0.25
		l2.14-5.12c0.43,0.04,0.92,0.2,1.39,0.41c0.72,0.31,1.13,0.64,1.33,1.09c0.17,0.36,0.16,0.78-0.02,1.19
		c-0.26,0.59-0.78,0.93-1.44,0.93l-0.15-0.01c0.37,0.22,0.48,0.68,0.36,1.33c-0.13,0.73-0.23,1.32-0.21,1.56l0.01,0.1L50.94,134.47z
		 M50.21,130.86l0.64,0.21c0.21,0.09,0.42,0.14,0.61,0.14c0.41,0,0.72-0.21,0.88-0.58c0.32-0.73-0.22-1.15-0.73-1.38
		c-0.28-0.12-0.49-0.18-0.61-0.21L50.21,130.86z"/>
	<path class="st1" d="M50.5,128.23c0.36,0.08,0.86,0.24,1.31,0.44c0.7,0.3,1.1,0.63,1.3,1.05c0.16,0.34,0.15,0.75-0.02,1.14
		c-0.29,0.67-0.91,0.94-1.53,0.89l-0.01,0.02c0.34,0.31,0.41,0.77,0.31,1.35c-0.14,0.79-0.23,1.33-0.21,1.57l-0.68-0.29
		c-0.02-0.18,0.06-0.67,0.19-1.37c0.15-0.77-0.01-1.15-0.59-1.43l-0.62-0.27l-0.96,2.21l-0.66-0.29L50.5,128.23z M50.15,130.84
		l0.67,0.29c0.7,0.31,1.32,0.11,1.57-0.47c0.28-0.66-0.07-1.15-0.76-1.46c-0.32-0.14-0.56-0.21-0.68-0.22L50.15,130.84z"/>
	<path class="st1" d="M60.21,137.45l-1.04-3.23c-0.26-0.84-0.44-1.5-0.54-2.07c-0.04,0.69-0.19,1.35-0.43,2.25l-0.6,2.3l-0.73-0.13
		l1.36-5.47l0.84,0.15l1.06,3.22c0.23,0.73,0.4,1.38,0.51,2.01c0.02-0.77,0.19-1.46,0.39-2.25l0.59-2.26l0.73,0.13l-1.38,5.53
		L60.21,137.45z"/>
	<path class="st1" d="M56.89,136.51l1.41-5.39l0.76,0.2l1.02,3.18c0.24,0.74,0.4,1.39,0.51,2.01l0.02,0c0.12-0.74,0.28-1.4,0.5-2.24
		l0.59-2.26l0.66,0.17l-1.41,5.39l-0.7-0.18l-1-3.18c-0.22-0.7-0.42-1.41-0.54-2.06l-0.03,0c-0.14,0.69-0.29,1.34-0.52,2.24
		l-0.6,2.3L56.89,136.51z"/>
	<polygon class="st1" points="66.73,138.64 67.37,133.03 68.15,133.07 67.5,138.73 	"/>
	<path class="st1" d="M68.14,133.13l-0.7,5.53l-0.71-0.09l0.7-5.53L68.14,133.13z"/>
	<polygon class="st1" points="74.28,139.17 74.3,134.15 72.66,134.19 72.61,133.51 76.8,133.52 76.85,134.19 75.09,134.22 
		75.07,139.19 	"/>
	<path class="st1" d="M74.36,134.15l-1.69-0.03l0.01-0.61l4.13,0.07l-0.01,0.61l-1.7-0.03l-0.08,4.96l-0.73-0.01L74.36,134.15z"/>
	<path class="st1" d="M83.65,138.69c-0.78,0-1.75-0.37-2-2.16l-0.46-3.25l0.77-0.17l0.53,3.32c0.14,0.99,0.59,1.54,1.27,1.54
		c0.06,0,0.13,0,0.19-0.01c0.84-0.12,1.2-0.77,1.04-1.88l-0.46-3.27l0.77-0.17l0.52,3.27c0.12,0.82,0,1.48-0.35,1.96
		c-0.31,0.43-0.82,0.7-1.46,0.79C83.9,138.68,83.78,138.69,83.65,138.69z"/>
	<path class="st1" d="M81.97,133.16l0.46,3.27c0.17,1.24,0.8,1.68,1.53,1.58c0.82-0.12,1.27-0.73,1.1-1.95l-0.46-3.27l0.72-0.1
		l0.45,3.22c0.24,1.7-0.56,2.52-1.75,2.68c-1.13,0.16-2.07-0.37-2.31-2.08l-0.46-3.25L81.97,133.16z"/>
	<path class="st1" d="M90.3,131.66c0.35-0.24,0.84-0.44,1.33-0.58c0.39-0.12,0.72-0.17,1-0.17c0.27,0,0.5,0.05,0.72,0.15
		c0.36,0.17,0.63,0.49,0.75,0.93c0.2,0.67-0.04,1.31-0.63,1.73c0.04-0.01,0.09-0.01,0.13-0.01c0.38,0,0.71,0.28,1,0.8
		c0.37,0.65,0.67,1.16,0.84,1.33l-0.74,0.32c-0.18-0.13-0.41-0.49-0.81-1.2c-0.29-0.53-0.56-0.74-0.94-0.74
		c-0.11,0-0.23,0.02-0.37,0.05l-0.65,0.19l0.73,2.24l-0.73,0.28l-0.06,0.02L90.3,131.66z M92.42,131.63c-0.16,0-0.35,0.03-0.54,0.08
		c-0.33,0.1-0.55,0.2-0.65,0.26l0.61,1.88l0.63-0.25c0.7-0.21,1.03-0.72,0.86-1.29C93.19,131.86,92.89,131.63,92.42,131.63z"/>
	<path class="st1" d="M90.36,131.65c0.33-0.18,0.82-0.36,1.29-0.5c0.74-0.22,1.25-0.23,1.67-0.02c0.34,0.16,0.6,0.48,0.72,0.89
		c0.21,0.71-0.1,1.3-0.6,1.66l0.01,0.02c0.45,0.02,0.81,0.33,1.1,0.84c0.4,0.69,0.68,1.17,0.85,1.34l-0.71,0.21
		c-0.13-0.12-0.39-0.55-0.74-1.17c-0.38-0.69-0.74-0.88-1.38-0.72l-0.65,0.19l0.69,2.31l-0.69,0.2L90.36,131.65z M91.78,133.87
		l0.7-0.21c0.74-0.22,1.08-0.76,0.9-1.37c-0.21-0.69-0.79-0.84-1.53-0.63c-0.33,0.1-0.56,0.2-0.66,0.27L91.78,133.87z"/>
	<path class="st1" d="M98.13,128.9l0.74-0.42l2.88,1.78c0.64,0.41,1.19,0.8,1.68,1.21c-0.47-0.6-0.79-1.23-1.14-1.97l-1-2.11
		l0.64-0.37l2.47,5.06l-0.69,0.39l-2.87-1.8c-0.75-0.48-1.3-0.87-1.74-1.24c0.41,0.56,0.72,1.16,1.11,1.99l1.02,2.15l-0.64,0.37
		l-0.06,0.03L98.13,128.9z"/>
	<path class="st1" d="M100.57,133.9l-2.39-5.03l0.71-0.34l2.82,1.78c0.65,0.41,1.2,0.8,1.68,1.21l0.01-0.01
		c-0.38-0.64-0.68-1.25-1.06-2.03l-1-2.11l0.61-0.29l2.39,5.03l-0.66,0.31l-2.81-1.79c-0.62-0.39-1.22-0.81-1.74-1.23l-0.02,0.02
		c0.34,0.62,0.64,1.22,1.04,2.05l1.02,2.15L100.57,133.9z"/>
	<polygon class="st1" points="106.35,124.54 108.87,122.78 109.3,123.3 107.37,124.66 108.37,126.04 110.08,124.81 110.5,125.33 
		108.68,126.62 109.82,128.2 111.74,126.84 112.16,127.36 109.49,129.22 	"/>
	<path class="st1" d="M110.45,125.36l-1.8,1.2l1.12,1.67l2.01-1.34l0.34,0.5l-2.6,1.74l-3.1-4.63l2.5-1.67l0.34,0.5l-1.9,1.27
		l0.98,1.46l1.8-1.2L110.45,125.36z"/>
	<polygon class="st1" points="114.08,119.5 112.9,120.64 112.41,120.17 115.49,117.35 115.98,117.81 114.71,119.03 118.01,122.64 
		117.46,123.21 117.41,123.25 	"/>
	<path class="st1" d="M114.12,119.46l-1.26,1.13l-0.41-0.46l3.08-2.74l0.41,0.46l-1.27,1.13l3.3,3.7l-0.54,0.48L114.12,119.46z"/>
</g>
<g>
	<circle class="st2" cx="75.14" cy="75.14" r="58.27"/>
	<path class="st3" d="M22.18,50.28c0.02,0.29-0.07,0.83-0.33,1.45c-0.62,1.44-1.99,2.13-3.66,1.42c-1.6-0.68-2.22-2.23-1.54-3.81
		c0.27-0.64,0.58-0.98,0.74-1.11l0.47,0.39c-0.23,0.2-0.47,0.51-0.65,0.94c-0.51,1.2-0.09,2.32,1.25,2.89
		c1.25,0.53,2.36,0.16,2.89-1.08c0.17-0.4,0.26-0.85,0.25-1.17L22.18,50.28z"/>
	<path class="st3" d="M17.97,44.04l1.23-0.31l-0.29,0.54l-0.75,0.19l-0.01,0.01l0.25,0.73l-0.28,0.52l-0.42-1.19L17.97,44.04z
		 M22.54,43.93c1.68,0.91,2.02,2.41,1.34,3.65c-0.7,1.29-2.18,1.65-3.66,0.86c-1.55-0.84-2.04-2.34-1.34-3.65
		C19.61,43.46,21.09,43.15,22.54,43.93z M20.58,47.76c1.04,0.56,2.28,0.5,2.81-0.49c0.54-1-0.08-2.06-1.18-2.66
		c-0.97-0.52-2.25-0.56-2.82,0.49C18.82,46.14,19.51,47.18,20.58,47.76z"/>
	<path class="st3" d="M25.68,44.25l-4.6-3.11l0.44-0.65l3.32,0.1c0.77,0.02,1.43,0.08,2.05,0.18l0-0.02
		c-0.65-0.36-1.22-0.72-1.93-1.21l-1.92-1.3l0.38-0.56l4.6,3.11l-0.41,0.6l-3.32-0.12c-0.73-0.03-1.46-0.07-2.12-0.18l-0.01,0.03
		c0.6,0.36,1.17,0.72,1.93,1.23l1.96,1.33L25.68,44.25z"/>
	<path class="st3" d="M31.44,36.16c-0.12,0.32-0.37,0.93-0.85,1.51c-0.54,0.65-1.14,1.04-1.89,1.13c-0.66,0.07-1.42-0.17-2.08-0.72
		c-1.27-1.06-1.47-2.71-0.29-4.14c0.41-0.49,0.84-0.79,1.08-0.9l0.34,0.5c-0.29,0.14-0.61,0.36-0.97,0.79
		c-0.86,1.04-0.78,2.25,0.29,3.14c1.08,0.9,2.26,0.78,3.09-0.22c0.3-0.36,0.45-0.65,0.5-0.83l-1.27-1.06l-0.72,0.87l-0.44-0.37
		l1.17-1.41L31.44,36.16z"/>
	<path class="st3" d="M31.14,29.76l-1.22,1.17l-0.42-0.44l2.96-2.84l0.42,0.44l-1.22,1.17l3.42,3.56l-0.52,0.5L31.14,29.76z"/>
	<path class="st3" d="M38.12,30.13l-1.48-1.82l-3.37-1.37l0.63-0.51l1.57,0.69c0.43,0.19,0.77,0.35,1.15,0.54l0.01-0.01
		c-0.11-0.38-0.19-0.78-0.29-1.24L36,24.71l0.63-0.51l0.57,3.64l1.49,1.83L38.12,30.13z"/>
	<path class="st3" d="M40.56,22.22l-1.42,0.92l-0.33-0.51l3.45-2.23l0.33,0.51l-1.42,0.92l2.68,4.15l-0.61,0.39L40.56,22.22z"/>
	<path class="st3" d="M46.07,24.58l-2.59-4.9l0.69-0.37l2.88,1.65c0.67,0.38,1.22,0.75,1.72,1.13l0.01-0.01
		c-0.4-0.62-0.73-1.21-1.14-1.97l-1.08-2.05l0.6-0.32l2.59,4.9l-0.64,0.34l-2.87-1.66c-0.63-0.36-1.25-0.75-1.78-1.15l-0.02,0.02
		c0.36,0.6,0.69,1.18,1.12,1.99l1.11,2.09L46.07,24.58z"/>
	<path class="st3" d="M49.68,16.58l0.88,2.15l2.48-1.02l-0.88-2.15l0.67-0.28l2.11,5.13l-0.67,0.28l-0.99-2.41l-2.48,1.02l0.99,2.41
		l-0.66,0.27l-2.11-5.13L49.68,16.58z"/>
	<path class="st3" d="M55.47,14.4l0.67,2.22l2.57-0.77l-0.67-2.22l0.69-0.21l1.59,5.31l-0.69,0.21l-0.75-2.49l-2.57,0.77l0.75,2.49
		l-0.68,0.21l-1.59-5.31L55.47,14.4z"/>
	<path class="st3" d="M63.85,17.92l-0.87-5.47l0.77-0.12l2.2,2.49c0.51,0.58,0.92,1.1,1.27,1.62l0.02-0.01
		c-0.18-0.72-0.3-1.38-0.44-2.24l-0.37-2.29l0.67-0.11l0.87,5.47l-0.71,0.11l-2.18-2.5c-0.48-0.55-0.94-1.11-1.31-1.66l-0.02,0.01
		c0.15,0.68,0.27,1.34,0.42,2.25l0.37,2.34L63.85,17.92z"/>
	<path class="st3" d="M74.03,13.99c0.11,1.9-0.98,2.98-2.4,3.07c-1.46,0.09-2.55-0.99-2.65-2.66c-0.1-1.76,0.92-2.97,2.4-3.06
		C72.89,11.25,73.93,12.35,74.03,13.99z M69.74,14.34c0.07,1.18,0.77,2.2,1.9,2.14c1.13-0.07,1.71-1.15,1.64-2.4
		c-0.07-1.1-0.71-2.21-1.9-2.14C70.2,12,69.67,13.12,69.74,14.34z M71.54,10.16l0.92,0.88l-0.61,0.04l-0.56-0.54l-0.02,0l-0.48,0.6
		l-0.59,0.04l0.79-0.99L71.54,10.16z M71.33,18.06c-0.01-0.21,0.16-0.42,0.39-0.43c0.22-0.01,0.41,0.17,0.42,0.39
		c0.01,0.21-0.15,0.43-0.38,0.44C71.54,18.47,71.34,18.27,71.33,18.06z"/>
	<path class="st3" d="M76.25,11.33l-0.09,5.54l-0.72-0.01l0.09-5.54L76.25,11.33z"/>
	<path class="st3" d="M81.06,12.2l-1.68-0.17l0.06-0.61l4.09,0.4l-0.06,0.61l-1.69-0.17l-0.49,4.92l-0.72-0.07L81.06,12.2z"/>
	<path class="st3" d="M85.6,12.16l-0.43,2.28l2.64,0.49l0.43-2.28l0.71,0.13l-1.02,5.45l-0.71-0.13l0.48-2.55l-2.64-0.49l-0.48,2.56
		l-0.7-0.13l1.02-5.45L85.6,12.16z"/>
	<path class="st3" d="M90.74,17.16l-1.03,1.52L89,18.48l3.33-4.81l0.83,0.24l0.3,5.85l-0.74-0.21l-0.09-1.84L90.74,17.16z
		 M92.64,17.13l-0.08-1.68c-0.02-0.38-0.01-0.72,0-1.05l-0.02,0c-0.17,0.29-0.35,0.59-0.54,0.89l-0.96,1.39L92.64,17.13z
		 M93.37,12.68l0.49,1.12l-0.55-0.16l-0.28-0.68l-0.02,0l-0.6,0.43l-0.53-0.15l0.98-0.69L93.37,12.68z M95.28,12.58l-1.19,0.56
		l-0.41-0.12l0.9-0.64L95.28,12.58z"/>
	<path class="st3" d="M96.62,15.68l-1.58-0.58l0.21-0.57l3.85,1.42l-0.21,0.57l-1.59-0.58l-1.7,4.63l-0.68-0.25L96.62,15.68z"/>
	<path class="st3" d="M102.42,17.42l0.64,0.32l-2.21,4.42l2.12,1.06l-0.27,0.54l-2.76-1.38L102.42,17.42z"/>
	<path class="st3" d="M107.05,19.86l-2.75,4.81l-0.62-0.35l2.75-4.81L107.05,19.86z"/>
	<path class="st3" d="M109.49,24.86l-1.81-1.18l-1.09,1.68l2.01,1.31l-0.33,0.5l-2.61-1.7l3.02-4.65l2.51,1.63l-0.33,0.5l-1.91-1.24
		l-0.96,1.47l1.81,1.17L109.49,24.86z M110.84,20.75l0.21,1.26l-0.51-0.33l-0.13-0.76l-0.01-0.01l-0.74,0.19l-0.5-0.32l1.22-0.32
		L110.84,20.75z"/>
	<path class="st3" d="M109.3,27.88l3.41-4.37l0.62,0.48L113,27.3c-0.08,0.77-0.18,1.42-0.32,2.03l0.02,0
		c0.4-0.62,0.81-1.17,1.34-1.85l1.43-1.83l0.53,0.42l-3.41,4.37L112.01,30l0.34-3.3c0.08-0.72,0.17-1.45,0.32-2.1l-0.02-0.01
		c-0.4,0.58-0.8,1.11-1.36,1.84l-1.46,1.87L109.3,27.88z"/>
	<path class="st3" d="M119.22,28.96l0.51,0.51l-1.89,1.89l0.02,0.02c0.26-0.05,0.5-0.08,0.73-0.11l2.67-0.27l0.63,0.63l-3.09,0.24
		l-0.73,3.79l-0.6-0.6l0.64-3.22l-0.8,0.06l-1.5,1.49l-0.51-0.51L119.22,28.96z"/>
	<path class="st3" d="M122.45,36.8l-1.4-1.64l-1.52,1.3l1.56,1.83l-0.46,0.39l-2.02-2.37l4.22-3.6l1.94,2.28l-0.46,0.39l-1.48-1.73
		l-1.33,1.14l1.4,1.64L122.45,36.8z M124.92,33.26l-0.21,1.2l-0.37-0.44l0.14-0.72l-0.01-0.01l-0.74,0.02l-0.36-0.42l1.21-0.03
		L124.92,33.26z M126.57,34.23l-1.3-0.2l-0.28-0.33l1.11-0.04L126.57,34.23z"/>
	<path class="st3" d="M126.06,37.69l-0.99-1.36l0.49-0.36l2.41,3.32l-0.49,0.36l-1-1.37l-3.99,2.9l-0.43-0.58L126.06,37.69z"/>
	<path class="st3" d="M130.32,43.03l-2.03,1.13l1.3,2.34l2.03-1.13l0.35,0.63l-4.84,2.69l-0.35-0.63l2.27-1.26l-1.3-2.34l-2.27,1.26
		l-0.35-0.63l4.84-2.69L130.32,43.03z"/>
	<path class="st3" d="M132.82,47.9c0.23,0.37,0.49,0.83,0.71,1.35c0.41,0.94,0.48,1.71,0.26,2.34c-0.22,0.63-0.7,1.15-1.52,1.51
		c-0.83,0.36-1.62,0.4-2.29,0.12c-0.68-0.27-1.28-0.94-1.71-1.93c-0.2-0.47-0.35-0.87-0.46-1.22L132.82,47.9z M128.6,50.5
		c0.04,0.18,0.14,0.42,0.25,0.68c0.61,1.41,1.72,1.83,3.1,1.23c1.2-0.51,1.67-1.52,1.07-2.91c-0.15-0.34-0.29-0.58-0.4-0.74
		L128.6,50.5z"/>
</g>
<g>
	<path class="st3" d="M45.29,39.62h16.12l-4.64,26.34h14.31l4.64-26.34h16.12l-12.52,71.03H63.2l5.21-29.53H54.09l-5.21,29.53H32.77
		L45.29,39.62z"/>
	<g>
		<path class="st1" d="M113.01,48.55c-4.38-5.94-11.78-8.91-22.21-8.91H75.75l-2.5,14.19l15.11,0.92c2.04,0.11,4.54,0.34,5.81,0.69
			c1.27,0.35,2.47,1.3,3.59,2.85c1.13,1.54,1.8,3.74,2,6.6c0.21,2.86-0.05,6.34-0.78,10.45c-1.23,6.95-3.12,11.94-5.67,14.98
			c-2.56,3.03-6.32,4.76-11.29,5.19l0.02-0.12c-0.04,0.02-0.09,0.03-0.14,0.04l-3.05,15.24h0.17c5.82,0,11.34-1.19,16.56-3.56
			c5.23-2.38,9.65-6.22,13.26-11.54c3.62-5.32,6.19-12.31,7.71-20.96C118.57,63.17,117.39,54.49,113.01,48.55z"/>
	</g>
</g>
<g>
	<path class="st1" d="M140.43,69.72l-1.63,2.15v0.03l2.59-0.34v1.17l-2.59-0.31v0.04l1.65,2.06l-1.08,0.62l-1.03-2.4h-0.03
		l-1.12,2.42l-0.98-0.62l1.63-2.09V72.4l-2.54,0.33v-1.17l2.52,0.33v-0.03l-1.61-2.09l1.05-0.6l1.06,2.39h0.03l1.05-2.4
		L140.43,69.72z"/>
</g>
<g>
	<path class="st1" d="M13.88,69.72l-1.63,2.15v0.03l2.59-0.34v1.17l-2.59-0.31v0.04l1.65,2.06l-1.08,0.62l-1.03-2.4h-0.03
		l-1.12,2.42l-0.98-0.62l1.63-2.09V72.4l-2.54,0.33v-1.17l2.52,0.33v-0.03l-1.61-2.09l1.05-0.6l1.06,2.39h0.03l1.05-2.4L13.88,69.72
		z"/>
</g>
<g>
</g>
<g>
</g>
<g>
</g>
<g>
</g>
<g>
</g>
<g>
</g>
<g>
</g>
<g>
</g>
<g>
</g>
<g>
</g>
<g>
</g>
<g>
</g>
<g>
</g>
<g>
</g>
<g>
</g>
</svg>
