<?xml version="1.0" encoding="utf-8"?>
<!-- Generator: Adobe Illustrator 24.0.0, SVG Export Plug-In . SVG Version: 6.00 Build 0)  -->
<svg version="1.1" xmlns="http://www.w3.org/2000/svg" xmlns:xlink="http://www.w3.org/1999/xlink" x="0px" y="0px"
	 viewBox="0 0 150 150" style="enable-background:new 0 0 150 150;" xml:space="preserve">
<style type="text/css">
	.st0{fill:#FFFFFF;stroke:#D7202B;stroke-width:5;stroke-miterlimit:10;}
	.st1{fill:#01A453;}
	.st2{fill:none;}
	.st3{display:none;}
	.st4{fill:#F2202B;}
	.st5{font-family:'MyriadPro-Regular';}
	.st6{font-size:16.8px;}
</style>
<g id="Layer_1">
	<circle class="st0" cx="75.05" cy="75.05" r="70"/>
	<g>
		<polygon class="st1" points="38.4,126.65 41.8,121.6 44.74,123.59 44.08,124.58 42.21,123.32 41.53,124.34 43.25,125.5 
			42.59,126.48 40.87,125.32 39.48,127.38 		"/>
		<path class="st1" d="M41.88,122.02l2.45,1.65l-0.33,0.49l-1.86-1.25l-1.02,1.51l1.72,1.16l-0.33,0.49l-1.72-1.16l-1.39,2.06
			l-0.59-0.4L41.88,122.02z"/>
		<path class="st1" d="M48.84,132.51c-0.36,0-0.73-0.09-1.11-0.27c-0.62-0.29-1.02-0.72-1.19-1.27c-0.19-0.59-0.09-1.3,0.29-2.1
			l1.52-3.18l1.19,0.57l-1.53,3.2c-0.22,0.46-0.3,0.86-0.23,1.16c0.06,0.25,0.22,0.44,0.48,0.57c0.16,0.08,0.32,0.12,0.46,0.12
			c0.42,0,0.79-0.33,1.1-0.98l1.53-3.2l1.19,0.57l-1.51,3.16C50.36,132.22,49.47,132.51,48.84,132.51z"/>
		<path class="st1" d="M49.13,126.4l-1.4,2.93c-0.53,1.11-0.26,1.81,0.4,2.13c0.73,0.35,1.43,0.09,1.96-1l1.4-2.93l0.65,0.31
			l-1.38,2.88c-0.73,1.52-1.83,1.76-2.9,1.25c-1.01-0.48-1.5-1.43-0.77-2.96l1.39-2.91L49.13,126.4z"/>
		<path class="st1" d="M57.67,135.93l-0.04-0.17c-0.05-0.2-0.04-0.59,0.03-1.45c0.06-0.7-0.12-0.89-0.54-1.04l-0.34-0.1l-0.7,2.27
			l-1.25-0.38l1.74-5.7l0.24,0.02c0.38,0.04,0.9,0.15,1.39,0.3c0.8,0.24,1.28,0.56,1.56,1.02c0.24,0.39,0.29,0.87,0.14,1.36
			c-0.18,0.58-0.59,0.99-1.14,1.16c0.16,0.29,0.22,0.67,0.19,1.13c-0.04,0.56-0.08,1.26-0.04,1.48l0.1,0.49L57.67,135.93z
			 M57.51,132.21c0.14,0.04,0.28,0.07,0.41,0.07c0.36,0,0.61-0.18,0.71-0.5c0.05-0.17,0.21-0.68-0.71-0.98
			c-0.16-0.05-0.29-0.08-0.38-0.1l-0.42,1.38L57.51,132.21z"/>
		<path class="st1" d="M56.79,129.69c0.36,0.04,0.87,0.15,1.33,0.29c0.72,0.22,1.15,0.5,1.39,0.89c0.19,0.31,0.23,0.72,0.11,1.12
			c-0.21,0.69-0.79,1.02-1.4,1.04l-0.01,0.02c0.36,0.26,0.49,0.71,0.45,1.29c-0.05,0.78-0.08,1.33-0.04,1.56l-0.7-0.21
			c-0.04-0.17-0.02-0.66,0.03-1.36c0.07-0.77-0.13-1.13-0.74-1.34l-0.64-0.2l-0.7,2.27l-0.68-0.21L56.79,129.69z M56.73,132.29
			l0.69,0.21c0.72,0.22,1.3-0.03,1.49-0.63c0.21-0.68-0.19-1.12-0.91-1.35c-0.33-0.1-0.57-0.14-0.69-0.14L56.73,132.29z"/>
		<path class="st1" d="M67.05,137.86l-1.39-3.15c-0.13-0.28-0.24-0.55-0.33-0.79c-0.04,0.31-0.08,0.64-0.14,1.01l-0.38,2.61
			l-1.25-0.18l0.88-6.01l1.22,0.18l1.4,3.15c0.1,0.23,0.19,0.45,0.28,0.66c0.04-0.3,0.08-0.6,0.13-0.93l0.37-2.56l1.25,0.18
			l-0.88,6.01L67.05,137.86z"/>
		<path class="st1" d="M63.89,137.09l0.79-5.42l0.76,0.11l1.34,3c0.31,0.69,0.54,1.31,0.72,1.9l0.02,0c0.04-0.73,0.12-1.4,0.25-2.24
			l0.33-2.27l0.66,0.1l-0.79,5.42l-0.71-0.1l-1.32-3c-0.29-0.66-0.56-1.33-0.75-1.96l-0.03,0c-0.06,0.69-0.14,1.34-0.27,2.24
			l-0.34,2.32L63.89,137.09z"/>
		
			<rect x="71.07" y="134.65" transform="matrix(0.0169 -0.9999 0.9999 0.0169 -62.4284 207.1194)" class="st1" width="6.08" height="1.31"/>
		<path class="st1" d="M74.51,132.57l-0.09,5.48l-0.71-0.01l0.09-5.48L74.51,132.57z"/>
		<polygon class="st1" points="80.39,133.24 78.73,133.41 78.61,132.22 83.24,131.74 83.36,132.94 81.7,133.11 82.19,137.96 
			80.88,138.1 		"/>
		<path class="st1" d="M80.66,132.91L79,133.08l-0.06-0.6l4.04-0.41l0.06,0.6l-1.67,0.17l0.49,4.85l-0.71,0.07L80.66,132.91z"/>
		<path class="st1" d="M90,136.6c-0.75,0-1.74-0.36-2.18-2.09l-0.87-3.42l1.28-0.32l0.87,3.44c0.14,0.55,0.43,1.2,1.05,1.2
			c0.08,0,0.17-0.01,0.26-0.03c0.32-0.08,0.53-0.24,0.64-0.48c0.13-0.28,0.13-0.68,0.01-1.18l-0.87-3.44l1.28-0.32l0.86,3.39
			c0.42,1.65-0.18,2.81-1.65,3.18C90.44,136.57,90.21,136.6,90,136.6z"/>
		<path class="st1" d="M88.01,131.13l0.8,3.15c0.3,1.19,0.96,1.56,1.67,1.38c0.79-0.2,1.16-0.85,0.86-2.02l-0.8-3.15l0.69-0.18
			l0.79,3.1c0.41,1.63-0.28,2.52-1.43,2.81c-1.09,0.28-2.07-0.14-2.48-1.79l-0.79-3.13L88.01,131.13z"/>
		<path class="st1" d="M95.62,128.65l0.2-0.14c0.31-0.21,0.78-0.46,1.26-0.66c0.5-0.21,0.9-0.31,1.26-0.31c0.21,0,0.4,0.03,0.59,0.1
			c0.43,0.14,0.78,0.48,0.98,0.96c0.23,0.55,0.18,1.14-0.14,1.63c0.33,0.13,0.62,0.37,0.88,0.73c0.33,0.46,0.75,1.02,0.92,1.16
			l0.39,0.31l-1.3,0.55l-0.14-0.1c-0.16-0.12-0.41-0.44-0.91-1.13c-0.33-0.47-0.53-0.53-0.71-0.53c-0.1,0-0.22,0.03-0.37,0.08
			l-0.33,0.14l0.92,2.19l-1.21,0.51L95.62,128.65z M97.77,130.39l0.39-0.16c0.28-0.12,0.47-0.28,0.57-0.47
			c0.09-0.18,0.09-0.37,0.01-0.57c-0.12-0.29-0.31-0.42-0.6-0.42c-0.17,0-0.36,0.04-0.57,0.13c-0.15,0.06-0.27,0.12-0.36,0.17
			L97.77,130.39z"/>
		<path class="st1" d="M95.99,128.76c0.3-0.21,0.76-0.44,1.21-0.63c0.7-0.29,1.2-0.36,1.63-0.2c0.35,0.12,0.64,0.4,0.8,0.79
			c0.28,0.67,0.05,1.29-0.41,1.69l0.01,0.02c0.45-0.03,0.83,0.23,1.17,0.71c0.46,0.63,0.79,1.07,0.97,1.22l-0.67,0.28
			c-0.14-0.11-0.44-0.49-0.85-1.06c-0.44-0.63-0.82-0.78-1.43-0.56l-0.61,0.26l0.92,2.19l-0.65,0.27L95.99,128.76z M97.61,130.79
			l0.67-0.28c0.7-0.29,0.98-0.86,0.74-1.44c-0.28-0.65-0.87-0.74-1.56-0.46c-0.31,0.13-0.53,0.26-0.62,0.33L97.61,130.79z"/>
		<polygon class="st1" points="102.93,125.08 105.99,123.26 106.6,124.28 104.67,125.44 105.25,126.41 107.08,125.32 107.68,126.34 
			105.85,127.43 106.56,128.61 108.6,127.39 109.21,128.42 106.05,130.3 		"/>
		<path class="st1" d="M107.27,126.23l-1.83,1.09l1.01,1.7l2.04-1.22l0.3,0.51l-2.65,1.58l-2.81-4.71l2.54-1.52l0.3,0.51l-1.94,1.15
			l0.89,1.49l1.83-1.09L107.27,126.23z"/>
	</g>
	<path id="SVGID_x5F_1_x5F_" class="st2" d="M138.05,74.1c0,34.77-28.18,62.95-62.95,62.95S12.15,108.87,12.15,74.1
		S40.33,11.15,75.1,11.15S138.05,39.33,138.05,74.1z"/>
	<text class="st3">	<textPath  xlink:href="#SVGID_x5F_1_x5F_" startOffset="79.6305%"  style="display:inline;">
<tspan  class="st1 st5" style="font-size:8.1337px; letter-spacing:500;">FURNITURE</tspan>	</textPath>
</text>
	<path id="SVGID_x5F_2_x5F_" class="st2" d="M126.81,65.05c0,34.66-28.1,62.75-62.75,62.75S1.3,99.71,1.3,65.05S29.39,2.3,64.05,2.3
		S126.81,30.39,126.81,65.05z"/>
	<text class="st3">	<textPath  xlink:href="#SVGID_x5F_2_x5F_" startOffset="74.2107%"  style="display:inline;">
<tspan  class="st4 st5" style="font-size:8.8595px; letter-spacing:50;">CÔNG TY TNHH NỘI THẤT LIÊN KẾT HD</tspan>	</textPath>
</text>
	<g>
		<path class="st4" d="M20.55,53.83c-0.41,0-0.83-0.09-1.27-0.28c-0.77-0.33-1.33-0.86-1.6-1.55c-0.28-0.68-0.25-1.45,0.08-2.22
			c0.3-0.71,0.64-1.02,0.74-1.1l0.02-0.01l0.5,0.42l-0.03,0.02c-0.25,0.22-0.47,0.54-0.63,0.91c-0.25,0.58-0.27,1.14-0.06,1.62
			c0.21,0.5,0.65,0.9,1.28,1.17c0.35,0.15,0.7,0.23,1.02,0.23c0.79,0,1.41-0.45,1.77-1.28c0.16-0.38,0.25-0.81,0.24-1.13l0-0.03
			l0.63,0.09l0,0.02c0.02,0.28-0.06,0.81-0.33,1.43C22.45,53.21,21.59,53.83,20.55,53.83z"/>
		<path class="st4" d="M23.2,50.71c0.02,0.29-0.07,0.81-0.33,1.42c-0.6,1.41-1.94,2.09-3.58,1.39c-1.56-0.67-2.17-2.18-1.51-3.73
			c0.27-0.62,0.57-0.96,0.73-1.09l0.46,0.38c-0.22,0.19-0.46,0.5-0.64,0.92c-0.5,1.17-0.08,2.27,1.23,2.83
			c1.22,0.52,2.31,0.15,2.83-1.06c0.17-0.39,0.26-0.83,0.24-1.14L23.2,50.71z"/>
		<path class="st4" d="M22.8,49.35c-0.5,0-1.02-0.14-1.53-0.42c-0.74-0.4-1.26-0.96-1.5-1.63c-0.23-0.65-0.17-1.35,0.17-1.98
			c0.44-0.82,1.18-1.27,2.08-1.27c0.5,0,1.02,0.14,1.53,0.42c1.76,0.95,1.93,2.5,1.33,3.62C24.47,48.89,23.7,49.35,22.8,49.35z
			 M21.92,44.84c-0.45,0-1.07,0.14-1.43,0.81c-0.25,0.47-0.26,0.97-0.02,1.45c0.22,0.43,0.63,0.83,1.17,1.12
			c0.42,0.23,0.86,0.35,1.28,0.35c0.65,0,1.16-0.29,1.44-0.81c0.56-1.04-0.17-2.04-1.15-2.56C22.8,44.97,22.34,44.84,21.92,44.84z
			 M18.8,45.08l0.26-0.5l1.29-0.34l-0.31,0.58l-0.75,0.2l0.26,0.69l-0.31,0.59L18.8,45.08z"/>
		<path class="st4" d="M19.08,44.6l1.21-0.31l-0.28,0.52L19.27,45l-0.01,0.01l0.25,0.71l-0.28,0.51l-0.41-1.17L19.08,44.6z
			 M23.56,44.5c1.64,0.89,1.98,2.36,1.32,3.58c-0.68,1.26-2.14,1.62-3.58,0.84c-1.52-0.82-2-2.3-1.31-3.57
			C20.68,44.04,22.14,43.73,23.56,44.5z M21.63,48.25c1.02,0.55,2.23,0.49,2.76-0.48c0.53-0.98-0.07-2.02-1.16-2.6
			c-0.95-0.51-2.21-0.55-2.76,0.47C19.92,46.66,20.58,47.68,21.63,48.25z"/>
		<path class="st4" d="M22.09,41.78l0.44-0.66l3.27,0.09c0.7,0.02,1.32,0.08,1.9,0.16c-0.61-0.34-1.17-0.7-1.8-1.13L24,38.95
			l0.4-0.59l4.54,3.07l-0.41,0.61l-3.27-0.1c-0.81-0.03-1.44-0.08-1.98-0.16c0.55,0.33,1.08,0.67,1.81,1.17l1.94,1.32l-0.4,0.59
			L22.09,41.78z"/>
		<path class="st4" d="M26.62,44.82l-4.5-3.04l0.43-0.63l3.25,0.1c0.75,0.02,1.4,0.08,2.01,0.18l0-0.02
			c-0.64-0.35-1.19-0.71-1.89-1.18l-1.88-1.27l0.37-0.55l4.5,3.04l-0.4,0.59l-3.25-0.12c-0.71-0.03-1.43-0.07-2.07-0.17l-0.01,0.02
			c0.59,0.35,1.14,0.7,1.89,1.21l1.92,1.3L26.62,44.82z"/>
		<path class="st4" d="M29.35,39.52c-0.61,0-1.26-0.26-1.83-0.72c-1.3-1.09-1.42-2.73-0.29-4.09c0.4-0.48,0.82-0.78,1.06-0.89
			l0.02-0.01l0.36,0.54l-0.03,0.01c-0.35,0.18-0.64,0.41-0.94,0.77c-0.85,1.02-0.74,2.19,0.29,3.03c0.46,0.38,0.96,0.59,1.45,0.59
			c0.57,0,1.1-0.28,1.54-0.8c0.25-0.3,0.42-0.59,0.47-0.78l-1.21-1l-0.7,0.85l-0.48-0.4l1.18-1.42l2.05,1.69l-0.01,0.02
			c-0.14,0.38-0.39,0.95-0.84,1.48c-0.55,0.67-1.16,1.03-1.86,1.12C29.51,39.52,29.43,39.52,29.35,39.52z"/>
		<path class="st4" d="M32.26,36.9c-0.11,0.31-0.37,0.91-0.83,1.47c-0.52,0.63-1.12,1.02-1.85,1.11c-0.65,0.07-1.39-0.17-2.04-0.71
			c-1.24-1.04-1.45-2.65-0.29-4.05c0.4-0.48,0.82-0.78,1.05-0.88l0.33,0.49c-0.28,0.14-0.6,0.35-0.94,0.78
			c-0.84,1.02-0.76,2.2,0.29,3.07c1.06,0.88,2.22,0.76,3.02-0.22c0.29-0.35,0.44-0.64,0.48-0.81l-1.25-1.03l-0.7,0.85l-0.43-0.36
			l1.14-1.38L32.26,36.9z"/>
		<polygon class="st4" points="31.98,30.66 30.79,31.8 30.34,31.33 33.28,28.51 33.73,28.98 32.53,30.13 35.88,33.62 35.32,34.15 		
			"/>
		<path class="st4" d="M31.98,30.62l-1.19,1.14l-0.41-0.43l2.9-2.78l0.41,0.43l-1.2,1.15l3.34,3.49l-0.51,0.49L31.98,30.62z"/>
		<path class="st4" d="M37.35,29.21l-3.34-1.35l0.67-0.54L36.24,28c0.44,0.2,0.76,0.35,1.09,0.51c-0.09-0.3-0.16-0.63-0.24-1.01
			l-0.03-0.16l-0.34-1.67l0.67-0.55l0.56,3.62l1.47,1.8l-0.59,0.48L37.35,29.21z"/>
		<path class="st4" d="M38.83,30.98l-1.45-1.79l-3.3-1.34l0.62-0.5l1.54,0.68c0.42,0.19,0.76,0.34,1.13,0.53l0.01-0.01
			c-0.1-0.37-0.18-0.76-0.28-1.21l-0.34-1.66l0.62-0.5l0.55,3.57l1.46,1.79L38.83,30.98z"/>
		<polygon class="st4" points="41.2,23.27 39.81,24.17 39.46,23.62 42.88,21.41 43.24,21.96 41.84,22.86 44.47,26.92 43.82,27.33 		
			"/>
		<path class="st4" d="M41.21,23.24l-1.39,0.9l-0.32-0.5l3.38-2.18l0.32,0.5l-1.39,0.9l2.62,4.06l-0.6,0.38L41.21,23.24z"/>
		<path class="st4" d="M44,20.75l0.7-0.37L47.55,22c0.6,0.34,1.13,0.69,1.6,1.04c-0.38-0.59-0.7-1.17-1.06-1.85l-1.08-2.03
			l0.63-0.34l2.57,4.85l-0.65,0.35l-2.84-1.63c-0.7-0.41-1.24-0.75-1.68-1.07c0.33,0.55,0.64,1.1,1.05,1.88l1.1,2.07l-0.63,0.34
			L44,20.75z"/>
		<path class="st4" d="M46.58,25.56l-2.54-4.8l0.68-0.36l2.82,1.61c0.65,0.37,1.2,0.73,1.69,1.1l0.01-0.01
			c-0.4-0.61-0.72-1.19-1.12-1.93l-1.06-2.01l0.58-0.31l2.54,4.8l-0.63,0.33l-2.81-1.63C46.13,22,45.52,21.62,45,21.23l-0.02,0.02
			c0.36,0.59,0.68,1.15,1.1,1.95l1.09,2.05L46.58,25.56z"/>
		<polygon class="st4" points="49.44,17.98 50.14,17.69 51.01,19.79 53.38,18.82 52.52,16.72 53.23,16.43 55.31,21.5 54.6,21.79 
			53.64,19.44 51.26,20.41 52.23,22.77 51.52,23.06 		"/>
		<path class="st4" d="M50.13,17.73l0.86,2.1l2.43-1l-0.86-2.1l0.66-0.27l2.06,5.02l-0.66,0.27l-0.97-2.36l-2.43,1l0.97,2.35
			l-0.65,0.27L49.48,18L50.13,17.73z"/>
		<polygon class="st4" points="55.08,15.77 55.8,15.55 56.46,17.73 58.92,16.99 58.26,14.81 59,14.59 60.57,19.85 59.84,20.07 
			59.11,17.63 56.65,18.37 57.38,20.81 56.66,21.03 		"/>
		<path class="st4" d="M55.78,15.59l0.65,2.18l2.52-0.76l-0.65-2.18l0.68-0.2l1.56,5.2l-0.68,0.2l-0.73-2.44l-2.52,0.76l0.73,2.44
			l-0.67,0.2l-1.56-5.2L55.78,15.59z"/>
		<path class="st4" d="M63.11,13.65l0.78-0.12l2.18,2.45c0.46,0.52,0.85,1.01,1.18,1.5c-0.17-0.68-0.29-1.34-0.41-2.09l-0.36-2.27
			L67.19,13l0.86,5.42l-0.73,0.12l-2.16-2.46c-0.53-0.61-0.93-1.11-1.24-1.56c0.13,0.62,0.25,1.25,0.39,2.12l0.37,2.32l-0.71,0.11
			L63.11,13.65z"/>
		<path class="st4" d="M64,19.04l-0.85-5.36l0.76-0.12l2.15,2.44c0.5,0.57,0.9,1.08,1.24,1.59l0.01-0.01
			c-0.18-0.71-0.3-1.36-0.43-2.19l-0.36-2.24l0.65-0.1l0.85,5.36l-0.7,0.11l-2.14-2.45c-0.47-0.54-0.92-1.09-1.29-1.63l-0.02,0.01
			c0.15,0.67,0.27,1.31,0.41,2.2l0.36,2.29L64,19.04z"/>
		<path class="st4" d="M71.73,19.59c-0.22,0-0.42-0.19-0.43-0.41c-0.01-0.23,0.18-0.44,0.41-0.46c0,0,0,0,0,0
			c0.24,0,0.43,0.18,0.44,0.41c0.01,0.11-0.03,0.22-0.1,0.31c-0.08,0.09-0.18,0.15-0.29,0.15L71.73,19.59z M71.46,18.23
			c-1.38,0-2.37-1.06-2.47-2.64c-0.05-0.84,0.16-1.58,0.6-2.13c0.43-0.53,1.06-0.85,1.78-0.89c0.06,0,0.11-0.01,0.17-0.01
			c1.38,0,2.37,1.06,2.46,2.63c0.05,0.89-0.16,1.65-0.62,2.19c-0.42,0.5-1.05,0.8-1.75,0.84C71.57,18.22,71.52,18.23,71.46,18.23z
			 M71.48,13.19c-0.03,0-0.07,0-0.1,0c-0.53,0.03-0.96,0.29-1.24,0.75c-0.25,0.41-0.37,0.98-0.34,1.58c0.06,1,0.62,2.07,1.73,2.07h0
			c0.03,0,0.07,0,0.1,0c0.52-0.03,0.94-0.28,1.22-0.73c0.26-0.42,0.39-0.98,0.35-1.6C73.15,14.27,72.58,13.19,71.48,13.19z
			 M70.97,11.45l0.56-0.04l0.97,0.92l-0.66,0.04l-0.57-0.53l-0.45,0.58l-0.66,0.05L70.97,11.45z"/>
		<path class="st4" d="M73.97,15.19c0.11,1.86-0.97,2.92-2.35,3c-1.43,0.08-2.5-0.97-2.6-2.61c-0.1-1.72,0.9-2.91,2.35-2.99
			C72.85,12.51,73.88,13.58,73.97,15.19z M69.77,15.53c0.07,1.16,0.76,2.16,1.86,2.09c1.11-0.07,1.68-1.12,1.6-2.35
			c-0.06-1.08-0.69-2.17-1.86-2.1C70.22,13.23,69.7,14.34,69.77,15.53z M71.53,11.44l0.9,0.87l-0.59,0.03l-0.55-0.52l-0.02,0
			L70.8,12.4l-0.58,0.03l0.77-0.96L71.53,11.44z M71.32,19.17c-0.01-0.21,0.15-0.41,0.39-0.43c0.22-0.01,0.4,0.17,0.41,0.38
			c0.01,0.21-0.14,0.42-0.37,0.43C71.53,19.57,71.34,19.38,71.32,19.17z"/>
		
			<rect x="73" y="14.91" transform="matrix(0.0163 -0.9999 0.9999 0.0163 59.219 90.7771)" class="st4" width="5.48" height="0.76"/>
		<path class="st4" d="M76.14,12.59l-0.09,5.43L75.35,18l0.09-5.43L76.14,12.59z"/>
		<polygon class="st4" points="80.34,18.27 80.82,13.46 79.17,13.3 79.24,12.65 83.29,13.05 83.23,13.7 81.58,13.54 81.1,18.35 		
			"/>
		<path class="st4" d="M80.85,13.44l-1.64-0.16l0.06-0.59l4,0.39l-0.06,0.59l-1.65-0.16l-0.47,4.81l-0.71-0.07L80.85,13.44z"/>
		<polygon class="st4" points="86.84,19.24 87.31,16.74 84.78,16.26 84.32,18.77 83.57,18.63 84.58,13.23 85.32,13.37 84.91,15.61 
			87.43,16.08 87.85,13.84 88.6,13.99 87.59,19.38 		"/>
		<path class="st4" d="M85.29,13.4l-0.42,2.23l2.58,0.48l0.42-2.23l0.7,0.13l-1,5.34l-0.7-0.13l0.47-2.5l-2.58-0.48l-0.47,2.5
			l-0.69-0.13l1-5.34L85.29,13.4z"/>
		<path class="st4" d="M92.25,20.65l-0.09-1.8l-1.81-0.52l-1.01,1.49l-0.76-0.22l3.3-4.76l0.85,0.24l0.29,5.79L92.25,20.65z
			 M92.17,18.22l-0.08-1.61c-0.02-0.34-0.01-0.65,0-0.95c-0.18,0.31-0.34,0.57-0.49,0.8l-0.92,1.33L92.17,18.22z M92.85,14.87
			l-0.28-0.66L92,14.62l-0.54-0.14l-0.06-0.02l1.01-0.71l0.51,0.14l0.53,1.17L92.85,14.87z M93.15,14.25l0.93-0.66l0.71,0.19
			l0.07,0.02l-1.25,0.58L93.15,14.25z"/>
		<path class="st4" d="M90.34,18.3l-1.01,1.49l-0.7-0.2l3.27-4.71l0.81,0.23l0.28,5.73l-0.72-0.21l-0.09-1.8L90.34,18.3z
			 M92.2,18.26l-0.08-1.65c-0.02-0.37-0.01-0.71,0-1.03l-0.02,0c-0.17,0.29-0.34,0.58-0.53,0.87l-0.94,1.36L92.2,18.26z
			 M92.92,13.91L93.4,15l-0.54-0.16l-0.27-0.66l-0.02,0l-0.59,0.42l-0.52-0.15l0.97-0.68L92.92,13.91z M94.79,13.81l-1.17,0.54
			l-0.4-0.12l0.88-0.63L94.79,13.81z"/>
		<polygon class="st4" points="94.37,21.39 96.04,16.85 94.49,16.28 94.72,15.67 98.54,17.07 98.32,17.69 96.76,17.12 95.09,21.65 
					"/>
		<path class="st4" d="M96.08,16.83l-1.55-0.57l0.21-0.56l3.77,1.39l-0.21,0.56l-1.56-0.57l-1.67,4.53l-0.67-0.24L96.08,16.83z"/>
		<polygon class="st4" points="99.3,23.41 101.75,18.5 102.43,18.84 100.27,23.17 102.35,24.21 102.06,24.79 		"/>
		<path class="st4" d="M101.77,18.54l0.63,0.31l-2.16,4.33l2.08,1.04l-0.26,0.53l-2.7-1.35L101.77,18.54z"/>
		
			<rect x="101.9" y="22.74" transform="matrix(0.4958 -0.8684 0.8684 0.4958 32.6826 102.5326)" class="st4" width="5.49" height="0.76"/>
		<path class="st4" d="M106.3,20.94l-2.69,4.71L103,25.3l2.69-4.71L106.3,20.94z"/>
		<path class="st4" d="M104.9,26.44l2.99-4.6l2.51,1.63l-0.35,0.54l-1.87-1.21l-0.9,1.39l1.77,1.15l-0.35,0.53l-1.77-1.15
			l-1.03,1.59l1.97,1.28l-0.35,0.54L104.9,26.44z M109.7,22.73l-0.14-0.77l-0.71,0.2l-0.51-0.32l-0.05-0.04l1.26-0.33l0.48,0.3
			l0.23,1.31L109.7,22.73z"/>
		<path class="st4" d="M108.69,25.83l-1.77-1.15l-1.07,1.64l1.97,1.28l-0.32,0.49l-2.56-1.66l2.96-4.55l2.46,1.6l-0.32,0.49
			l-1.87-1.21l-0.93,1.44l1.77,1.15L108.69,25.83z M110,21.8l0.21,1.23l-0.5-0.32l-0.13-0.75l-0.01-0.01l-0.73,0.19l-0.49-0.32
			l1.2-0.32L110,21.8z"/>
		<path class="st4" d="M111.13,30.87l0.32-3.26c0.08-0.81,0.18-1.44,0.29-1.97c-0.37,0.52-0.75,1.04-1.28,1.73l-1.44,1.85
			l-0.57-0.44l3.37-4.33l0.63,0.49l-0.31,3.26c-0.07,0.69-0.16,1.31-0.29,1.89c0.38-0.59,0.78-1.12,1.25-1.72l1.41-1.81l0.57,0.44
			l-3.37,4.33L111.13,30.87z"/>
		<path class="st4" d="M108.49,28.78l3.34-4.28l0.6,0.47l-0.32,3.24c-0.07,0.75-0.18,1.39-0.32,1.99l0.02,0
			c0.39-0.61,0.79-1.14,1.31-1.81l1.4-1.79l0.52,0.41l-3.34,4.28l-0.56-0.44l0.33-3.23c0.07-0.71,0.17-1.42,0.31-2.05l-0.02-0.01
			c-0.39,0.56-0.78,1.09-1.33,1.8l-1.43,1.83L108.49,28.78z"/>
		<path class="st4" d="M116.45,35.82l0.61-3.14l-0.75,0.05l-1.47,1.47l-0.53-0.54l3.89-3.87l0.53,0.54l-1.83,1.82
			c0.2-0.03,0.41-0.06,0.66-0.09l2.61-0.26l0.68,0.67l-3.06,0.24l-0.72,3.74L116.45,35.82z"/>
		<path class="st4" d="M118.2,29.84l0.49,0.5l-1.85,1.85l0.02,0.02c0.25-0.05,0.49-0.08,0.71-0.11l2.61-0.26l0.61,0.62l-3.02,0.23
			l-0.72,3.71l-0.59-0.59l0.63-3.15l-0.79,0.06l-1.47,1.46l-0.49-0.5L118.2,29.84z"/>
		<path class="st4" d="M117.56,37.01l4.17-3.56l1.94,2.27l-0.49,0.42l-1.45-1.7l-1.26,1.08l1.37,1.61l-0.48,0.41l-1.37-1.61
			l-1.45,1.23l1.53,1.79l-0.49,0.42L117.56,37.01z M123.19,34.81l0.13-0.7l-0.7,0.02l-0.37-0.42l-0.04-0.05l1.24-0.03l0.35,0.4
			l-0.21,1.26L123.19,34.81z M124.12,34.83l-0.33-0.37l1.14-0.04l0.49,0.56l0.05,0.06L124.12,34.83z"/>
		<path class="st4" d="M121.36,37.51l-1.37-1.61l-1.49,1.27l1.53,1.79l-0.45,0.38l-1.98-2.32l4.13-3.52l1.9,2.23l-0.45,0.38
			l-1.45-1.7l-1.31,1.11l1.37,1.61L121.36,37.51z M123.78,34.04l-0.2,1.18l-0.37-0.43l0.14-0.7l-0.01-0.01l-0.72,0.02l-0.35-0.41
			l1.18-0.03L123.78,34.04z M125.4,34.99l-1.28-0.19l-0.27-0.32l1.08-0.03L125.4,34.99z"/>
		<polygon class="st4" points="120.96,41.23 124.87,38.38 123.9,37.05 124.43,36.66 126.83,39.96 126.3,40.34 125.32,39 
			121.41,41.85 		"/>
		<path class="st4" d="M124.91,38.39l-0.97-1.34l0.48-0.35l2.37,3.25l-0.48,0.35l-0.98-1.34l-3.91,2.84L121,41.23L124.91,38.39z"/>
		<polygon class="st4" points="125.56,48.53 127.79,47.3 126.54,45.05 124.31,46.29 123.95,45.63 128.74,42.96 129.11,43.63 
			127.13,44.73 128.37,46.97 130.36,45.87 130.73,46.54 125.93,49.2 		"/>
		<path class="st4" d="M129.07,43.61l-1.99,1.1l1.27,2.3l1.99-1.1l0.34,0.62l-4.75,2.64l-0.34-0.62l2.23-1.24l-1.27-2.3l-2.23,1.24
			l-0.34-0.61l4.75-2.64L129.07,43.61z"/>
		<path class="st4" d="M129.66,53.78c-0.33,0-0.64-0.06-0.93-0.18c-0.68-0.27-1.26-0.93-1.69-1.91c-0.19-0.43-0.34-0.83-0.45-1.2
			l-0.01-0.02l4.95-2.14l0.01,0.02c0.27,0.43,0.5,0.87,0.7,1.33c0.4,0.92,0.48,1.67,0.25,2.31c-0.23,0.66-0.73,1.16-1.5,1.49
			C130.54,53.68,130.09,53.78,129.66,53.78z M127.43,50.94c0.04,0.15,0.11,0.35,0.24,0.64c0.41,0.95,1.06,1.44,1.89,1.44h0
			c0.34,0,0.71-0.09,1.1-0.25c0.59-0.25,0.98-0.61,1.17-1.08c0.2-0.49,0.15-1.07-0.14-1.73c-0.15-0.35-0.29-0.57-0.38-0.7
			L127.43,50.94z"/>
		<path class="st4" d="M131.52,48.37c0.23,0.37,0.48,0.81,0.7,1.32c0.4,0.92,0.47,1.67,0.25,2.29c-0.21,0.62-0.68,1.13-1.48,1.48
			c-0.81,0.35-1.59,0.39-2.25,0.12c-0.67-0.26-1.25-0.92-1.67-1.89c-0.2-0.46-0.34-0.85-0.45-1.19L131.52,48.37z M127.39,50.92
			c0.04,0.18,0.14,0.42,0.24,0.67c0.6,1.37,1.69,1.79,3.03,1.21c1.18-0.5,1.64-1.49,1.05-2.85c-0.14-0.33-0.28-0.57-0.39-0.73
			L127.39,50.92z"/>
	</g>
	<g>
		<path class="st4" d="M45.83,40.28h15.78l-4.55,25.78h14.01l4.55-25.78h15.78l-12.26,69.54H63.36l5.1-28.91H54.45l-5.1,28.91H33.57
			L45.83,40.28z"/>
		<g>
			<path class="st1" d="M112.13,49.02c-4.29-5.82-11.54-8.72-21.74-8.72H75.65l-2.45,13.9l14.79,0.9c1.99,0.1,4.45,0.33,5.69,0.68
				c1.24,0.35,2.41,1.28,3.52,2.79c1.11,1.51,1.76,3.66,1.96,6.46c0.2,2.8-0.05,6.21-0.76,10.23c-1.2,6.81-3.05,11.69-5.55,14.66
				c-2.5,2.97-6.19,4.66-11.05,5.08l0.02-0.12c-0.04,0.02-0.09,0.03-0.13,0.04l-2.98,14.92h0.17c5.69,0,11.1-1.16,16.21-3.49
				c5.12-2.33,9.44-6.09,12.98-11.3c3.54-5.21,6.06-12.05,7.55-20.52C117.58,63.33,116.42,54.84,112.13,49.02z"/>
		</g>
	</g>
	<text transform="matrix(1 0 0 1 133.4467 80.6831)" class="st1 st5 st6">*</text>
	<text transform="matrix(1 0 0 1 9.5473 80.6831)" class="st1 st5 st6">*</text>
</g>
<g id="Layer_2">
</g>
</svg>
